<svg width="132" height="132" viewBox="0 0 132 132" fill="none" xmlns="http://www.w3.org/2000/svg">
<g filter="url(#filter0_d_101_6)">
<path d="M128.134 181.955C128.092 181.972 128.048 181.981 128.004 181.981C127.959 181.981 127.915 181.972 127.874 181.955L49.036 136.558C49.0165 136.524 49.0062 136.486 49.0062 136.447C49.0062 136.408 49.0165 136.37 49.036 136.336V45.617C49.012 45.585 48.9989 45.546 48.9989 45.506C48.9989 45.4659 49.012 45.427 49.036 45.395L127.874 -0.0385742H128.134L206.971 45.395C206.991 45.4288 207.001 45.467 207.001 45.506C207.001 45.5449 206.991 45.5832 206.971 45.617V136.336C206.988 136.371 206.997 136.409 206.997 136.447C206.997 136.485 206.988 136.523 206.971 136.558L128.134 181.955Z" fill="#0FA06D"/>
</g>
<defs>
<filter id="filter0_d_101_6" x="-4" y="-0.0385742" width="264" height="264.077" filterUnits="userSpaceOnUse" color-interpolation-filters="sRGB">
<feFlood flood-opacity="0" result="BackgroundImageFix"/>
<feColorMatrix in="SourceAlpha" type="matrix" values="0 0 0 0 0 0 0 0 0 0 0 0 0 0 0 0 0 0 127 0" result="hardAlpha"/>
<feOffset dy="4"/>
<feGaussianBlur stdDeviation="2"/>
<feComposite in2="hardAlpha" operator="out"/>
<feColorMatrix type="matrix" values="0 0 0 0 0 0 0 0 0 0 0 0 0 0 0 0 0 0 0.25 0"/>
<feBlend mode="normal" in2="BackgroundImageFix" result="effect1_dropShadow_101_6"/>
<feBlend mode="normal" in="SourceGraphic" in2="effect1_dropShadow_101_6" result="shape"/>
</filter>
</defs>
</svg>
